<?xml version="1.0" encoding="UTF-8" standalone="no"?>
<svg
   xmlns:dc="http://purl.org/dc/elements/1.1/"
   xmlns:cc="http://creativecommons.org/ns#"
   xmlns:rdf="http://www.w3.org/1999/02/22-rdf-syntax-ns#"
   xmlns:svg="http://www.w3.org/2000/svg"
   xmlns="http://www.w3.org/2000/svg"
   viewBox="0 0 798.78668 946.78668"
   height="946.78668"
   width="798.78668"
   xml:space="preserve"
   id="svg2"
   version="1.1"><metadata
     id="metadata8"><rdf:RDF><cc:Work
         rdf:about=""><dc:format>image/svg+xml</dc:format><dc:type
           rdf:resource="http://purl.org/dc/dcmitype/StillImage" /></cc:Work></rdf:RDF></metadata><defs
     id="defs6" /><g
     transform="matrix(1.3333333,0,0,-1.3333333,0,946.78667)"
     id="g10"><g
       transform="scale(0.1)"
       id="g12"><path
         id="path14"
         style="fill:#000000;fill-opacity:1;fill-rule:nonzero;stroke:none"
         d="m 2995.43,56.9922 c -142.45,0 -276.82,35.0117 -378.38,98.5738 L 431.895,1523.5 C 225.172,1652.88 56.9883,1956.56 56.9883,2200.45 v 2700.03 c 0,243.9 168.1837,547.58 374.9137,676.95 L 2617.05,6945.35 c 101.55,63.58 235.93,98.6 378.38,98.6 142.46,0 276.83,-35.02 378.37,-98.6 L 5559,5577.43 c 206.7,-129.38 374.86,-433.05 374.86,-676.95 V 2200.45 c 0,-243.89 -168.16,-547.56 -374.86,-676.95 L 3373.8,155.566 C 3272.24,92.0039 3137.89,56.9922 2995.43,56.9922" /><path
         id="path16"
         style="fill:#ffffff;fill-opacity:1;fill-rule:nonzero;stroke:none"
         d="m 2995.43,6986.95 c 126.21,0 252.4,-29.97 348.12,-89.9 l 2185.2,-1367.93 c 191.48,-119.84 348.12,-402.75 348.12,-628.64 V 2200.45 c 0,-225.88 -156.64,-508.79 -348.12,-628.64 L 3343.55,203.879 c -95.72,-59.945 -221.91,-89.906 -348.12,-89.906 -126.2,0 -252.41,29.961 -348.14,89.906 L 462.133,1571.81 c -191.5,119.85 -348.16,402.76 -348.16,628.64 v 2700.03 c 0,225.89 156.66,508.8 348.16,628.64 L 2647.29,6897.05 c 95.73,59.93 221.94,89.9 348.14,89.9 m 0,113.97 c -153.01,0 -298.13,-38.09 -408.62,-107.27 L 401.66,5625.73 C 176.43,5484.78 0,5166.21 0,4900.48 V 2200.45 C 0,1934.73 176.43,1616.16 401.668,1475.2 L 2586.82,107.266 C 2697.32,38.1055 2842.43,0 2995.43,0 c 153,0 298.12,38.1055 408.59,107.277 L 5589.21,1475.2 c 225.22,140.96 401.65,459.55 401.65,725.25 v 2700.03 c 0,265.73 -176.43,584.3 -401.65,725.25 L 3404.02,6993.66 c -110.47,69.17 -255.59,107.26 -408.59,107.26 v 0" /><path
         id="path18"
         style="fill:#ffffff;fill-opacity:1;fill-rule:nonzero;stroke:none"
         d="m 3707.71,4877.23 c -71.7,124.18 -230.47,166.7 -354.63,95.03 -124.18,-71.69 -166.72,-230.46 -95.04,-354.63 l 466.23,-807.55 H 2266.53 l 953.72,1651.84 c 71.68,124.15 29.16,282.93 -95.02,354.62 -124.14,71.69 -282.91,29.15 -354.63,-95.03 l -953.69,-1651.82 -414.78,718.45 c -71.7,124.17 -230.47,166.69 -354.65,95.02 -124.164,-71.69 -166.699,-230.47 -95.011,-354.63 L 2283.14,2223.73 c 48.09,-83.3 135.36,-129.85 225.07,-129.85 44.04,0 88.7,11.22 129.57,34.82 124.17,71.67 166.71,230.46 95.03,354.64 l -466.23,807.52 H 3724.27 L 2770.6,1639.02 c -71.68,-124.14 -29.14,-282.93 95.02,-354.61 40.89,-23.61 85.52,-34.83 129.57,-34.83 89.73,0 176.97,46.56 225.08,129.85 l 953.69,1651.83 414.49,-717.96 c 48.09,-83.27 135.35,-129.82 225.08,-129.82 44.04,0 88.67,11.22 129.55,34.81 124.18,71.68 166.72,230.47 95.04,354.64 l -1330.41,2304.3" /><path
         id="path20"
         style="fill:#ffffff;fill-opacity:1;fill-rule:nonzero;stroke:none"
         d="m 4494.43,4105.55 c 40.86,-23.59 85.51,-34.82 129.57,-34.82 89.71,0 176.95,46.57 225.06,129.85 l 189.32,327.95 c 71.67,124.15 29.16,282.93 -95,354.63 -124.17,71.7 -282.95,29.16 -354.65,-95.04 l -189.34,-327.93 c -71.68,-124.16 -29.14,-282.94 95.04,-354.64" /><path
         id="path22"
         style="fill:#ffffff;fill-opacity:1;fill-rule:nonzero;stroke:none"
         d="m 1496.45,2995.37 c -124.15,71.68 -282.95,29.17 -354.65,-95 L 952.469,2572.41 c -71.688,-124.17 -29.153,-282.93 95.011,-354.62 40.89,-23.63 85.53,-34.82 129.56,-34.82 89.72,0 177,46.55 225.09,129.84 l 189.32,327.94 c 71.69,124.16 29.16,282.92 -95,354.62" /></g></g></svg>
